<svg width="26" height="26" viewBox="0 0 26 26" fill="none" xmlns="http://www.w3.org/2000/svg">
<path d="M20.2259 2.16699H18.1676C15.8059 2.16699 14.5601 3.41283 14.5601 5.77449V7.83283C14.5601 10.1945 15.8059 11.4403 18.1676 11.4403H20.2259C22.5876 11.4403 23.8334 10.1945 23.8334 7.83283V5.77449C23.8334 3.41283 22.5876 2.16699 20.2259 2.16699Z" fill="#1B1BDD"/>
<path d="M7.84341 14.5488H5.78508C3.41258 14.5488 2.16675 15.7947 2.16675 18.1563V20.2147C2.16675 22.5872 3.41258 23.833 5.77425 23.833H7.83258C10.1942 23.833 11.4401 22.5872 11.4401 20.2255V18.1672C11.4509 15.7947 10.2051 14.5488 7.84341 14.5488Z" fill="#1B1BDD"/>
<path d="M6.81425 11.462C9.38099 11.462 11.4617 9.38124 11.4617 6.81449C11.4617 4.24775 9.38099 2.16699 6.81425 2.16699C4.2475 2.16699 2.16675 4.24775 2.16675 6.81449C2.16675 9.38124 4.2475 11.462 6.81425 11.462Z" fill="#7777EE"/>
<path d="M19.1858 23.8331C21.7526 23.8331 23.8333 21.7523 23.8333 19.1856C23.8333 16.6188 21.7526 14.5381 19.1858 14.5381C16.6191 14.5381 14.5383 16.6188 14.5383 19.1856C14.5383 21.7523 16.6191 23.8331 19.1858 23.8331Z" fill="#7777EE"/>
</svg>
