<svg width="21" height="20" viewBox="0 0 21 20" fill="none" xmlns="http://www.w3.org/2000/svg">
<path fill-rule="evenodd" clip-rule="evenodd" d="M10.3029 17.3046C8.51218 16.2025 6.84626 14.9054 5.33501 13.4365C4.27253 12.3786 3.46368 11.089 2.9704 9.66639C2.08274 6.9067 3.11959 3.74738 6.02127 2.8124C7.54628 2.32145 9.21182 2.60205 10.4969 3.56641C11.7824 2.60323 13.4474 2.32273 14.9725 2.8124C17.8742 3.74738 18.9185 6.9067 18.0308 9.66639C17.5375 11.089 16.7287 12.3786 15.6662 13.4365C14.1549 14.9054 12.489 16.2025 10.6983 17.3046L10.5043 17.4252L10.3029 17.3046Z" stroke="#373748" stroke-linecap="round" stroke-linejoin="round"/>
<path d="M13.585 5.91895C14.4638 6.19969 15.0883 6.98872 15.1663 7.91708" stroke="#373748" stroke-linecap="round" stroke-linejoin="round"/>
</svg>
