<svg width="18" height="19" viewBox="0 0 18 19" fill="none" xmlns="http://www.w3.org/2000/svg">
<path d="M7.83749 2.78742L5.03249 6.28242C4.39499 7.07742 4.61999 8.09742 5.52749 8.54742L8.32499 9.94992C8.69249 10.1299 9.29249 10.1299 9.65999 9.94992L12.4575 8.54742C13.365 8.08992 13.59 7.06992 12.9525 6.28242L10.155 2.78742C9.52499 1.98492 8.47499 1.98492 7.83749 2.78742Z" stroke="#3772FF" stroke-width="1.3" stroke-miterlimit="10" stroke-linecap="round" stroke-linejoin="round"/>
<path d="M9 2.22461V6.16961" stroke="#3772FF" stroke-width="1.3" stroke-miterlimit="10" stroke-linecap="round" stroke-linejoin="round"/>
<path d="M5.8501 8.53242L9.0001 6.16992L12.1501 8.53242" stroke="#3772FF" stroke-width="1.3" stroke-miterlimit="10" stroke-linecap="round" stroke-linejoin="round"/>
<path d="M6.57758 11.3226L7.78508 11.8626C8.55758 12.2076 9.44258 12.2076 10.2226 11.8626L11.4301 11.3226C12.5101 10.8426 13.5076 12.1476 12.7576 13.0626L10.1626 16.2351C9.52508 17.0151 8.48258 17.0151 7.83758 16.2351L5.25008 13.0626C4.49258 12.1476 5.49008 10.8426 6.57758 11.3226Z" stroke="#3772FF" stroke-width="1.3" stroke-miterlimit="10" stroke-linecap="round" stroke-linejoin="round"/>
</svg>
